<svg viewBox="0 0 140 30" fill="none" xmlns="http://www.w3.org/2000/svg"><g clip-path="url(#clip0_3_772)"><path d="M12.1307 15.7144C11.8589 15.7144 11.6386 15.9357 11.6386 16.2088V16.463L11.6392 16.4753C11.6904 17.5044 12.4631 18.5349 13.7778 18.6365L13.7967 18.638H14.0562C14.328 18.638 14.5483 18.4166 14.5483 18.1436C14.5483 17.8705 14.328 17.6491 14.0562 17.6491H13.8357C13.08 17.5825 12.6565 17.0118 12.6228 16.4373V16.2088C12.6228 15.9357 12.4025 15.7144 12.1307 15.7144Z" fill="white"/><path fill-rule="evenodd" clip-rule="evenodd" d="M13.4802 7.72506C10.9368 7.83756 8.97053 9.93535 8.84286 12.4902C8.77882 13.7716 8.72889 14.9173 8.72889 15.9824C8.72889 16.9758 8.77233 17.9704 8.83014 19.1136C8.95869 21.6557 10.9217 23.7346 13.4525 23.8486C13.8357 23.8659 14.2072 23.8762 14.5483 23.8762C14.9001 23.8762 15.2841 23.8652 15.6801 23.847C18.1945 23.7311 20.1501 21.6767 20.2741 19.1508C20.3281 18.0511 20.3677 17.0683 20.3677 15.9824C20.3677 14.7694 20.3236 13.6505 20.2651 12.4418C20.1424 9.90808 18.1853 7.84219 15.6633 7.72717C15.2733 7.70938 14.8951 7.69875 14.5483 7.69875C14.2154 7.69875 13.8536 7.70855 13.4802 7.72506ZM10.2573 12.7832C10.3537 10.8359 11.8253 9.24537 13.7207 9.15761C14.0102 9.14421 14.2908 9.13621 14.5483 9.13621C14.8187 9.13621 15.1145 9.14502 15.4192 9.15965C17.2949 9.24968 18.7568 10.8103 18.8475 12.7376C18.8562 12.9213 18.8643 13.0779 18.8716 13.2198C18.8966 13.7009 18.9129 14.0161 18.9129 14.6696C18.9129 15.3143 18.8951 15.6812 18.8682 16.233C18.8639 16.3216 18.8594 16.4152 18.8547 16.5153C18.7638 18.4351 17.3034 19.9848 15.4351 20.0756C15.1247 20.0907 14.8234 20.0998 14.5483 20.0998C14.2832 20.0998 13.9937 20.0913 13.6953 20.0772C11.8114 19.9881 10.343 18.4153 10.2473 16.4799C10.241 16.3536 10.2351 16.2379 10.2295 16.1295L10.2295 16.1287C10.2021 15.596 10.1838 15.2405 10.1838 14.6696C10.1838 14.1213 10.2006 13.8201 10.2263 13.3629C10.2356 13.1967 10.246 13.0099 10.2573 12.7832Z" fill="white"/><path fill-rule="evenodd" clip-rule="evenodd" d="M8.30504 1.82715H20.7916C23.5322 1.82715 24.2405 2.11288 24.9249 2.48066C25.6638 2.87769 26.2327 3.4494 26.6279 4.1918C26.9939 4.87949 27.2783 5.59118 27.2783 8.34486V8.77855C27.2783 8.97796 27.1192 9.14031 26.9209 9.14876C26.8599 9.15135 26.7982 9.15432 26.736 9.15761C25.0775 9.24537 23.7898 10.8359 23.7055 12.7832C23.6957 13.0084 23.6866 13.1946 23.6785 13.3599L23.6784 13.362L23.6783 13.3629C23.6559 13.8201 23.6412 14.1213 23.6412 14.6696C23.6412 15.2405 23.6572 15.5961 23.6811 16.1288C23.686 16.2374 23.6912 16.3533 23.6967 16.4799C23.7805 18.4153 25.0654 19.9881 26.7137 20.0772C26.7834 20.081 26.8526 20.0844 26.9209 20.0873C27.1192 20.0957 27.2783 20.2581 27.2783 20.4575V20.8912C27.2783 23.6448 26.9939 24.3565 26.6279 25.0442C26.2327 25.7866 25.6638 26.3583 24.9249 26.7554C24.2405 27.1231 23.5322 27.4089 20.7916 27.4089H8.30504C5.56447 27.4089 4.85617 27.1231 4.17175 26.7554C3.43289 26.3583 2.8639 25.7866 2.46876 25.0442C2.10273 24.3565 1.81836 23.6448 1.81836 20.8912V20.4575C1.81836 20.2581 1.97747 20.0957 2.17574 20.0873C2.25369 20.084 2.33271 20.08 2.4124 20.0756C4.04723 19.9848 5.32507 18.4351 5.40454 16.5153C5.40862 16.4167 5.41253 16.3246 5.41625 16.2373L5.41644 16.2329C5.4399 15.681 5.45549 15.3143 5.45549 14.6696C5.45549 14.0161 5.44119 13.7006 5.41938 13.2195C5.41295 13.0776 5.40586 12.9213 5.39829 12.7376C5.3189 10.8103 4.03974 9.24968 2.39855 9.15965C2.32355 9.15554 2.24918 9.15188 2.17575 9.14876C1.97747 9.14031 1.81836 8.97796 1.81836 8.77855V8.34486C1.81836 5.59118 2.10273 4.87949 2.46876 4.1918C2.8639 3.44941 3.43289 2.8777 4.17175 2.48066C4.85617 2.11288 5.56447 1.82715 8.30504 1.82715ZM13.4248 6.45934C10.1868 6.60256 7.74162 9.26506 7.58363 12.4266C7.5196 13.708 7.46808 14.8821 7.46808 15.9823C7.46808 17.0106 7.51306 18.0331 7.57095 19.1778C7.73042 22.3314 10.1765 24.9692 13.3961 25.1142C13.7923 25.132 14.1833 25.143 14.5484 25.143C14.9247 25.143 15.3289 25.1313 15.738 25.1125C18.9341 24.9652 21.3791 22.3582 21.5335 19.2131C21.5877 18.1075 21.6287 17.1 21.6287 15.9823C21.6287 14.7383 21.5833 13.5951 21.5245 12.3802C21.3721 9.23008 18.9281 6.60781 15.7205 6.46152C15.3175 6.44314 14.9194 6.43181 14.5484 6.43181C14.1921 6.43181 13.8111 6.44226 13.4248 6.45934Z" fill="white"/><path d="M113.196 7.24702C112.649 7.78993 111.829 8.02497 110.75 8.02497C109.675 8.02497 108.833 7.78993 108.301 7.24702C107.754 6.72398 107.504 5.91955 107.504 4.88339V4.75098H109.255V4.88339C109.255 5.43954 109.377 5.79706 109.582 5.99238L109.588 5.999C109.796 6.21418 110.181 6.32011 110.747 6.32011C111.314 6.32011 111.679 6.21418 111.887 5.999L111.893 5.99238C112.105 5.79706 112.242 5.43623 112.242 4.88339V4.75098H113.994V4.88339C113.994 5.92286 113.722 6.72729 113.196 7.24702Z" fill="white"/><path fill-rule="evenodd" clip-rule="evenodd" d="M101.757 17.7046C101.927 17.4695 102.042 17.1749 102.122 16.7843L102.148 16.675H104.184L104.162 16.8273C104.059 17.496 103.87 18.0687 103.569 18.5322C103.275 19.0122 102.913 19.3896 102.465 19.6743C102.02 19.959 101.514 20.1543 100.95 20.2834C100.364 20.4125 99.7402 20.4555 99.0582 20.4555C98.2098 20.4555 97.4606 20.3695 96.7915 20.1741C96.1191 20.002 95.5268 19.6743 95.0594 19.234C94.592 18.7904 94.2334 18.1978 93.9805 17.4629C93.7275 16.7446 93.6027 15.8408 93.6027 14.7716C93.6027 13.6791 93.7243 12.7522 93.9773 12.014C94.227 11.2791 94.5856 10.6667 95.053 10.2032L95.0562 10.1999C95.5204 9.76292 96.0935 9.43519 96.7659 9.23988H96.7691C97.435 9.06773 98.1842 8.9618 99.0134 8.9618C100.592 8.9618 101.853 9.37229 102.785 10.2032C103.701 11.044 104.158 12.3119 104.158 13.9903V15.5429H95.6549C95.6677 16.152 95.7638 16.6585 95.911 17.0359C96.0679 17.4397 96.3016 17.7609 96.5898 17.9992C96.8779 18.2409 97.2269 18.3998 97.6399 18.4825C98.0625 18.5653 98.5267 18.6083 99.0518 18.6083C99.4584 18.6083 99.8202 18.5885 100.179 18.5256H100.185C100.515 18.4825 100.809 18.3832 101.085 18.2409L101.088 18.2376H101.091C101.354 18.1217 101.562 17.9462 101.757 17.7046ZM96.6698 11.4082C96.3817 11.6267 96.1479 11.9279 95.9719 12.3318C95.8086 12.7059 95.7093 13.1759 95.6773 13.7784H102.074C102.065 13.2157 101.984 12.7655 101.84 12.3914C101.684 11.9842 101.488 11.6863 101.222 11.4479C100.954 11.2261 100.643 11.0672 100.272 10.9646C99.8906 10.8818 99.468 10.8189 99.0102 10.8189C98.5267 10.8189 98.1041 10.862 97.7039 10.9447C97.3133 11.0242 96.9612 11.1864 96.6698 11.4082Z" fill="white"/><path d="M118.591 16.5625C118.63 16.1222 118.671 15.5561 118.671 14.8411V9.28621H127.245V20.1443H125.186V11.14H120.669V15.096C120.669 16.8008 120.422 18.0786 119.955 18.893C119.475 19.7471 118.69 20.1443 117.631 20.1443H117.176V18.1846H117.304C117.56 18.1846 117.762 18.1415 117.919 18.0522L117.925 18.0489L117.928 18.0455C118.076 17.9793 118.223 17.8171 118.338 17.5788C118.45 17.3437 118.53 17.0226 118.591 16.5625Z" fill="white"/><path d="M90.2954 16.5327C90.2154 16.9631 90.0777 17.304 89.908 17.5622C89.7127 17.8436 89.5014 18.0423 89.2517 18.2011C88.9796 18.36 88.6882 18.4627 88.3521 18.5223C87.9935 18.5852 87.6317 18.605 87.2251 18.605C86.6776 18.605 86.1974 18.562 85.778 18.4594C85.3458 18.3567 85 18.178 84.7342 17.9032L84.7311 17.8999C84.4429 17.6218 84.2284 17.2411 84.0683 16.7479C83.9114 16.2579 83.8282 15.5959 83.8282 14.7782C83.8282 13.9407 83.9082 13.2753 84.0683 12.7423C84.2284 12.2259 84.4429 11.8253 84.7311 11.5505L84.7342 11.5472C85 11.2725 85.3458 11.0904 85.778 10.9911C86.1974 10.8885 86.6808 10.8256 87.2251 10.8256C87.6029 10.8256 87.9647 10.8653 88.2912 10.9083C88.605 10.9712 88.8963 11.0705 89.1685 11.2294C89.4182 11.3883 89.6327 11.5903 89.828 11.8518C90.0009 12.11 90.1386 12.4311 90.2154 12.8383L90.2346 12.9442H92.2964L92.2676 12.7886C92.1428 12.0802 91.9539 11.4678 91.6561 10.9812C91.3616 10.5011 90.9998 10.1072 90.5772 9.79934L90.574 9.79603C90.1514 9.51134 89.6423 9.29285 89.0788 9.16375C88.4961 9.03464 87.891 8.97174 87.2283 8.97174C86.3767 8.97174 85.6307 9.07768 84.9648 9.24982H84.9616C84.2892 9.44513 83.6969 9.77286 83.2295 10.2098L83.2263 10.2131C82.7589 10.6766 82.4003 11.289 82.1506 12.0239C81.8976 12.7622 81.776 13.6891 81.776 14.7815C81.776 15.8508 81.9008 16.7545 82.1506 17.4729C82.4003 18.2078 82.7621 18.8003 83.2295 19.2439C83.6969 19.6842 84.2892 20.0119 84.9616 20.1841C85.6307 20.3794 86.3799 20.4655 87.2283 20.4655C87.9134 20.4655 88.5378 20.4026 89.1204 20.2735C89.6871 20.1444 90.193 19.9259 90.638 19.618C91.0862 19.3101 91.4448 18.9162 91.7426 18.413C92.0403 17.9264 92.2292 17.314 92.3349 16.5824L92.3573 16.4301H90.321L90.2954 16.5327Z" fill="white"/><path d="M137.241 16.5327L137.26 16.4235V16.4301H139.302L139.28 16.5824C139.174 17.314 138.985 17.9264 138.688 18.413C138.39 18.9162 138.031 19.3101 137.583 19.618C137.138 19.9259 136.632 20.1444 136.066 20.2735C135.483 20.4026 134.859 20.4655 134.173 20.4655C133.325 20.4655 132.576 20.3794 131.907 20.1841C131.234 20.0119 130.642 19.6842 130.175 19.2439C129.707 18.8003 129.349 18.2078 129.096 17.4729C128.846 16.7545 128.721 15.8508 128.721 14.7815C128.721 13.6891 128.843 12.7622 129.096 12.0239C129.345 11.289 129.704 10.6766 130.171 10.2131L130.175 10.2098C130.642 9.77286 131.234 9.44513 131.907 9.24982H131.91C132.576 9.07768 133.322 8.97174 134.173 8.97174C134.836 8.97174 135.441 9.03464 136.024 9.16375C136.591 9.29285 137.096 9.51134 137.519 9.79603L137.522 9.79934C137.945 10.1072 138.307 10.5011 138.601 10.9812C138.899 11.4678 139.088 12.0802 139.213 12.7886L139.242 12.9442H137.18L137.16 12.8383C137.084 12.4311 136.946 12.11 136.773 11.8518C136.578 11.5903 136.363 11.3883 136.114 11.2294C135.841 11.0705 135.55 10.9712 135.236 10.9083C134.91 10.8653 134.548 10.8256 134.17 10.8256C133.626 10.8256 133.142 10.8885 132.723 10.9911C132.291 11.0904 131.945 11.2725 131.679 11.5472L131.676 11.5505C131.388 11.8253 131.173 12.2259 131.013 12.7423C130.853 13.2753 130.773 13.9407 130.773 14.7782C130.773 15.5959 130.857 16.2579 131.013 16.7479C131.173 17.2411 131.388 17.6218 131.676 17.8999L131.679 17.9032C131.945 18.178 132.291 18.3567 132.723 18.4594C133.142 18.562 133.623 18.605 134.17 18.605C134.577 18.605 134.939 18.5852 135.297 18.5223C135.633 18.4627 135.925 18.36 136.197 18.2011C136.447 18.0423 136.658 17.8436 136.853 17.5622C137.023 17.304 137.16 16.9631 137.241 16.5327Z" fill="white"/><path fill-rule="evenodd" clip-rule="evenodd" d="M78.7248 9.8821C77.8764 9.26637 76.6982 8.96843 75.2286 8.96843C74.5243 8.96843 73.8808 9.03133 73.3365 9.16374C72.7698 9.29285 72.2832 9.51133 71.8798 9.79934L71.8766 9.80265C71.47 10.1138 71.1498 10.5078 70.8969 10.9911C70.6408 11.4777 70.4743 12.0868 70.391 12.7986L70.375 12.9475H72.3728L72.3888 12.835C72.4497 12.4212 72.5457 12.1001 72.6994 11.8452L72.7058 11.8385C72.8403 11.5803 73.0099 11.385 73.2373 11.2294C73.4646 11.0738 73.7335 10.9712 74.0665 10.9116C74.3898 10.8686 74.7932 10.8289 75.2351 10.8289C76.25 10.8289 76.9319 11.0176 77.3513 11.3321C77.7579 11.6366 77.9756 12.1597 77.9756 12.9409V13.6891C77.7374 13.6861 77.5193 13.6702 77.3124 13.6551L77.2328 13.6493H77.22C76.9607 13.6493 76.6982 13.6295 76.4325 13.6063H76.4196C76.282 13.6063 76.1475 13.603 76.0034 13.5964H75.9906C75.8434 13.5898 75.6865 13.5864 75.52 13.5864C75.3663 13.5864 75.2094 13.5831 75.0398 13.5765H75.0109C74.8316 13.5699 74.6396 13.5666 74.4347 13.5666C73.5446 13.5666 72.8114 13.6725 72.2416 13.8711H72.2383C71.6749 14.0863 71.2266 14.3478 70.9033 14.6855C70.5607 15.0198 70.343 15.3972 70.2149 15.7978C70.0869 16.195 70.0452 16.5923 70.0452 16.9631C70.0452 17.5854 70.1285 18.1382 70.343 18.5885C70.5351 19.0287 70.8136 19.4061 71.1818 19.6743C71.5276 19.9623 71.9534 20.1609 72.4369 20.29C72.9235 20.4224 73.4486 20.4655 74.0248 20.4655C74.8989 20.4655 75.6993 20.3132 76.4164 19.9656C77.1112 19.6279 77.633 19.1016 77.9756 18.3965V20.1477H80.0343V12.9343C80.0311 11.5472 79.5892 10.5045 78.7248 9.8821ZM77.9724 16.2977C77.934 16.7909 77.8123 17.1882 77.6267 17.4795C77.4314 17.7807 77.1816 18.0191 76.8775 18.1747C76.5605 18.3369 76.2051 18.4594 75.8081 18.5223C75.4047 18.5852 75.0237 18.605 74.6171 18.605C73.7207 18.605 73.074 18.4792 72.6738 18.2409C72.2992 18.0191 72.1039 17.6086 72.1039 16.9366C72.1039 16.7115 72.1231 16.4963 72.1967 16.3076L72.2031 16.2944C72.2544 16.1123 72.3792 15.9236 72.5873 15.7713L72.5937 15.7647C72.7762 15.6157 73.0772 15.4932 73.4838 15.3873C73.884 15.3045 74.4475 15.2416 75.1358 15.2416C75.3311 15.2416 75.5328 15.245 75.7473 15.2516H75.7761C76.0002 15.2582 76.2372 15.2615 76.4837 15.2615C76.9415 15.2814 77.4474 15.3012 77.9756 15.3211V16.2977H77.9724Z" fill="white"/><path fill-rule="evenodd" clip-rule="evenodd" d="M54.7192 14.659C55.4587 14.755 56.0606 14.9669 56.4993 15.3343C56.9443 15.7481 57.178 16.3605 57.1748 17.1948C57.1748 17.6185 57.0883 17.9926 56.9603 18.3435C56.829 18.7043 56.6113 19.0188 56.3104 19.2869C56.0126 19.5518 55.6508 19.7736 55.225 19.9259H55.2218C54.7736 20.0814 54.2677 20.1443 53.685 20.1443H47.698V9.28621H53.2368C53.9028 9.28621 54.4726 9.37228 54.9369 9.52456H54.9433C55.4043 9.6967 55.7693 9.89533 56.0702 10.1635C56.368 10.4316 56.5889 10.7229 56.7202 11.0639C56.8482 11.3949 56.9123 11.7293 56.9123 12.0868C56.9123 12.8714 56.701 13.5037 56.3008 13.9175L56.2976 13.9208C55.907 14.3048 55.3819 14.5431 54.7192 14.6226V14.659ZM53.0959 11.14H49.7599V13.7751H53.4673C54.0244 13.7751 54.3862 13.6328 54.5751 13.3845C54.764 13.1097 54.876 12.7986 54.876 12.4046C54.876 12.2093 54.8408 12.0338 54.7992 11.865C54.7672 11.7359 54.6871 11.63 54.5687 11.5075C54.447 11.4016 54.2677 11.3221 54.0244 11.2394C53.7907 11.1798 53.4737 11.14 53.0959 11.14ZM53.2784 18.2905C53.8611 18.2905 54.3094 18.1879 54.6519 17.9893C54.9689 17.8072 55.1386 17.4762 55.1386 16.9597C55.1386 16.5426 55.0233 16.2149 54.7992 15.9434C54.5911 15.6952 54.1525 15.5462 53.4417 15.5462H49.7599V18.2905H53.2784Z" fill="white"/><path d="M60.8471 16.5923V9.28621H58.7852V20.1443H59.9954L66.3282 12.9177V20.1443H68.3868V9.28621H67.1766L60.8471 16.5923Z" fill="white"/><path fill-rule="evenodd" clip-rule="evenodd" d="M40.8338 8.96843C42.3034 8.96843 43.4816 9.26637 44.33 9.8821C45.1912 10.5045 45.633 11.5472 45.633 12.9343V20.1444H43.5744V18.3932C43.2318 19.0983 42.7132 19.6246 42.0152 19.9623C41.2981 20.3099 40.4977 20.4622 39.6236 20.4622C39.0473 20.4622 38.5223 20.4191 38.0356 20.2867C37.5522 20.1576 37.1264 19.959 36.7806 19.671C36.4124 19.4028 36.1339 19.0254 35.9418 18.5852C35.7273 18.1349 35.644 17.5821 35.644 16.9597C35.644 16.589 35.6857 16.1917 35.8137 15.7945C35.9418 15.3939 36.1595 15.0165 36.5021 14.6822C36.8286 14.3478 37.2769 14.0863 37.8339 13.8711H37.8371C38.407 13.6725 39.1402 13.5666 40.0302 13.5666C40.2351 13.5666 40.4272 13.5699 40.6065 13.5765H40.6353C40.805 13.5831 40.9619 13.5864 41.1156 13.5864C41.2821 13.5864 41.4389 13.5898 41.5862 13.5964H41.599C41.7431 13.603 41.8776 13.6063 42.0152 13.6063H42.028C42.297 13.6295 42.5595 13.6493 42.8188 13.6493H42.8316L42.9112 13.6551C43.1181 13.6702 43.3362 13.6861 43.5744 13.6891V12.9343C43.5744 12.153 43.3567 11.63 42.9501 11.3254C42.5307 11.0109 41.8487 10.8223 40.8338 10.8223C40.392 10.8223 39.9886 10.862 39.6653 10.905C39.3291 10.9646 39.0634 11.0672 38.836 11.2228C38.6087 11.3784 38.439 11.5737 38.3046 11.8319L38.3014 11.8352V11.8419C38.1509 12.0968 38.0516 12.4179 37.9908 12.8317L37.9748 12.9442H35.977L35.993 12.7953C36.0763 12.0835 36.2427 11.4744 36.4989 10.9878C36.7518 10.5045 37.072 10.1105 37.4786 9.79934L37.4818 9.79603C37.8852 9.50802 38.3718 9.29285 38.9417 9.16374C39.486 9.03133 40.1295 8.96843 40.8338 8.96843ZM43.2286 17.4795C43.4143 17.1882 43.5328 16.7909 43.5744 16.2977H43.5776V15.3211C43.0494 15.3012 42.5403 15.2814 42.0857 15.2615C41.8391 15.2615 41.6022 15.2582 41.3781 15.2516H41.3493C41.1348 15.245 40.9331 15.2416 40.7378 15.2416C40.0494 15.2416 39.486 15.3045 39.0858 15.3873C38.6792 15.4932 38.3782 15.6157 38.1957 15.7647L38.1893 15.7713C37.9812 15.9236 37.8564 16.1123 37.8051 16.2944L37.7987 16.3076C37.7251 16.4963 37.7059 16.7115 37.7059 16.9366C37.7059 17.6086 37.9012 18.0191 38.2758 18.2409C38.676 18.4792 39.3227 18.605 40.2191 18.605C40.6257 18.605 41.0067 18.5852 41.4101 18.5223C41.8071 18.4594 42.1625 18.3369 42.4795 18.1747C42.7836 18.0191 43.0365 17.7807 43.2286 17.4795Z" fill="white"/><path d="M108.01 16.5923V9.28621H105.951V20.1443H107.158L113.491 12.9177V20.1443H115.55V9.28621H114.339L108.01 16.5923Z" fill="white"/></g><defs><clipPath id="clip0_3_772"><rect width="139.302" height="29.2363" fill="white"/></clipPath>a</defs></svg>
