<svg viewBox="0 0 254 144" fill="none" xmlns="http://www.w3.org/2000/svg">
<mask id="mask0_205_28" style="mask-type:alpha" maskUnits="userSpaceOnUse" x="0" y="0" width="254" height="48">
<rect width="254" height="48" fill="#2BBB49"/>
</mask>
<g mask="url(#mask0_205_28)">
<g filter="url(#filter0_f_205_28)">
<mask id="mask1_205_28" style="mask-type:alpha" maskUnits="userSpaceOnUse" x="-11" y="-17" width="305" height="182">
<rect x="-10.8859" y="-16.187" width="304.8" height="181.071" fill="white"/>
</mask>
<g mask="url(#mask1_205_28)">
<rect x="-10.8859" y="-16.187" width="304.8" height="181.071" fill="white"/>
<g filter="url(#filter1_f_205_28)">
<ellipse cx="211.687" cy="165.333" rx="108.058" ry="122.834" fill="#44FF34"/>
</g>
<g filter="url(#filter2_f_205_28)">
<ellipse cx="52.8296" cy="189.745" rx="94.7119" ry="122.706" fill="#B6FF7C"/>
</g>
<g filter="url(#filter3_f_205_28)">
<path d="M357.984 31.1628C348.024 87.1162 301.574 78.3146 252.352 64.8581C119.8 227.485 22.4868 27.8649 32.4474 -28.0885C42.4079 -84.0419 150.732 -232.43 199.954 -218.973C249.177 -205.517 367.945 -24.7906 357.984 31.1628Z" fill="#0A5DFF"/>
</g>
<g filter="url(#filter4_f_205_28)">
<ellipse cx="80.8122" cy="-56.1314" rx="145.081" ry="164.921" fill="#2BBB49"/>
</g>
</g>
</g>
<mask id="mask2_205_28" style="mask-type:alpha" maskUnits="userSpaceOnUse" x="-27" y="-58" width="381" height="201">
<rect x="-26.3073" y="-58" width="379.652" height="200.626" fill="white"/>
</mask>
<g mask="url(#mask2_205_28)">
<rect x="-26.3073" y="-58" width="379.652" height="200.626" fill="#2BBB49"/>
<g filter="url(#filter5_f_205_28)">
<ellipse cx="250.924" cy="143.124" rx="134.594" ry="136.1" fill="#0F9803"/>
</g>
<g filter="url(#filter6_f_205_28)">
<ellipse cx="53.0552" cy="170.173" rx="117.971" ry="135.958" fill="#B6FF7C"/>
</g>
<g filter="url(#filter7_f_205_28)">
<path d="M433.149 -5.53662C420.742 56.4597 362.886 46.7074 301.576 31.7977C136.471 211.989 15.2609 -9.19074 27.6675 -71.187C40.0742 -133.183 175 -297.597 236.31 -282.687C297.621 -267.777 445.556 -67.5329 433.149 -5.53662Z" fill="#0A5DFF"/>
</g>
<g filter="url(#filter8_f_205_28)">
<ellipse cx="87.9104" cy="-102.258" rx="180.71" ry="182.732" fill="#2BBB49"/>
</g>
</g>
</g>
<mask id="mask3_205_28" style="mask-type:alpha" maskUnits="userSpaceOnUse" x="0" y="48" width="254" height="48">
<rect width="254" height="48" transform="translate(0 48)" fill="#2BBB49"/>
</mask>
<g mask="url(#mask3_205_28)">
<g filter="url(#filter9_f_205_28)">
<mask id="mask4_205_28" style="mask-type:alpha" maskUnits="userSpaceOnUse" x="-11" y="31" width="305" height="182">
<rect x="-10.8859" y="31.813" width="304.8" height="181.071" fill="white"/>
</mask>
<g mask="url(#mask4_205_28)">
<rect x="-10.8859" y="31.813" width="304.8" height="181.071" fill="white"/>
<g filter="url(#filter10_f_205_28)">
<ellipse cx="211.687" cy="213.333" rx="108.058" ry="122.834" fill="#0047FF"/>
</g>
<g filter="url(#filter11_f_205_28)">
<ellipse cx="52.8296" cy="237.745" rx="94.7119" ry="122.706" fill="#B6FF7C"/>
</g>
<g filter="url(#filter12_f_205_28)">
<path d="M357.984 79.1628C348.024 135.116 301.574 126.315 252.352 112.858C119.8 275.485 22.4868 75.8649 32.4474 19.9115C42.4079 -36.0419 150.732 -184.43 199.954 -170.973C249.177 -157.517 367.945 23.2094 357.984 79.1628Z" fill="#0057FF"/>
</g>
<g filter="url(#filter13_f_205_28)">
<ellipse cx="80.8122" cy="-8.13139" rx="145.081" ry="164.921" fill="#00BAE2"/>
</g>
</g>
</g>
<mask id="mask5_205_28" style="mask-type:alpha" maskUnits="userSpaceOnUse" x="-27" y="-10" width="381" height="201">
<rect x="-26.3073" y="-10" width="379.652" height="200.626" fill="white"/>
</mask>
<g mask="url(#mask5_205_28)">
<rect x="-26.3073" y="-10" width="379.652" height="200.626" fill="#00BAE2"/>
<g filter="url(#filter14_f_205_28)">
<ellipse cx="250.924" cy="191.124" rx="134.594" ry="136.1" fill="#0F9803"/>
</g>
<g filter="url(#filter15_f_205_28)">
<ellipse cx="53.0552" cy="218.173" rx="117.971" ry="135.958" fill="#B6FF7C"/>
</g>
<g filter="url(#filter16_f_205_28)">
<path d="M433.149 42.4634C420.742 104.46 362.886 94.7074 301.576 79.7977C136.471 259.989 15.2609 38.8093 27.6675 -23.187C40.0742 -85.1833 175 -249.597 236.31 -234.687C297.621 -219.777 445.556 -19.5329 433.149 42.4634Z" fill="#0057FF"/>
</g>
<g filter="url(#filter17_f_205_28)">
<ellipse cx="87.9104" cy="-54.2584" rx="180.71" ry="182.732" fill="#00BAE2"/>
</g>
</g>
</g>
<mask id="mask6_205_28" style="mask-type:alpha" maskUnits="userSpaceOnUse" x="0" y="96" width="254" height="48">
<rect width="254" height="48" transform="translate(0 96)" fill="#2BBB49"/>
</mask>
<g mask="url(#mask6_205_28)">
<g filter="url(#filter18_f_205_28)">
<mask id="mask7_205_28" style="mask-type:alpha" maskUnits="userSpaceOnUse" x="-11" y="79" width="305" height="182">
<rect x="-10.8859" y="79.813" width="304.8" height="181.071" fill="white"/>
</mask>
<g mask="url(#mask7_205_28)">
<rect x="-10.8859" y="79.813" width="304.8" height="181.071" fill="white"/>
<g filter="url(#filter19_f_205_28)">
<ellipse cx="211.687" cy="261.333" rx="108.058" ry="122.834" fill="#0047FF"/>
</g>
<g filter="url(#filter20_f_205_28)">
<ellipse cx="52.8296" cy="285.745" rx="94.7119" ry="122.706" fill="#B6FF7C"/>
</g>
<g filter="url(#filter21_f_205_28)">
<path d="M357.984 127.163C348.024 183.116 301.574 174.315 252.352 160.858C119.8 323.485 22.4868 123.865 32.4474 67.9115C42.4079 11.9581 150.732 -136.43 199.954 -122.973C249.177 -109.517 367.945 71.2094 357.984 127.163Z" fill="#0057FF"/>
</g>
<g filter="url(#filter22_f_205_28)">
<ellipse cx="80.8122" cy="39.8686" rx="145.081" ry="164.921" fill="#434C9C"/>
</g>
</g>
</g>
<mask id="mask8_205_28" style="mask-type:alpha" maskUnits="userSpaceOnUse" x="-27" y="38" width="381" height="201">
<rect x="-26.3073" y="38" width="379.652" height="200.626" fill="white"/>
</mask>
<g mask="url(#mask8_205_28)">
<rect x="-26.3073" y="38" width="379.652" height="200.626" fill="#434C9C"/>
<g filter="url(#filter23_f_205_28)">
<ellipse cx="250.924" cy="239.124" rx="134.594" ry="136.1" fill="#0F9803"/>
</g>
<g filter="url(#filter24_f_205_28)">
<ellipse cx="53.0552" cy="266.173" rx="117.971" ry="135.958" fill="#B6FF7C"/>
</g>
<g filter="url(#filter25_f_205_28)">
<path d="M433.149 90.4634C420.742 152.46 362.886 142.707 301.576 127.798C136.471 307.989 15.2609 86.8093 27.6675 24.813C40.0742 -37.1833 175 -201.597 236.31 -186.687C297.621 -171.777 445.556 28.4671 433.149 90.4634Z" fill="#0057FF"/>
</g>
<g filter="url(#filter26_f_205_28)">
<ellipse cx="87.9104" cy="-6.25838" rx="180.71" ry="182.732" fill="#434C9C"/>
</g>
</g>
</g>
<defs>
<filter id="filter0_f_205_28" x="-98.3719" y="-103.673" width="479.772" height="356.043" filterUnits="userSpaceOnUse" color-interpolation-filters="sRGB">
<feFlood flood-opacity="0" result="BackgroundImageFix"/>
<feBlend mode="normal" in="SourceGraphic" in2="BackgroundImageFix" result="shape"/>
<feGaussianBlur stdDeviation="43.743" result="effect1_foregroundBlur_205_28"/>
</filter>
<filter id="filter1_f_205_28" x="-18.1421" y="-79.2725" width="459.657" height="489.211" filterUnits="userSpaceOnUse" color-interpolation-filters="sRGB">
<feFlood flood-opacity="0" result="BackgroundImageFix"/>
<feBlend mode="normal" in="SourceGraphic" in2="BackgroundImageFix" result="shape"/>
<feGaussianBlur stdDeviation="60.8855" result="effect1_foregroundBlur_205_28"/>
</filter>
<filter id="filter2_f_205_28" x="-231.041" y="-122.119" width="567.742" height="623.73" filterUnits="userSpaceOnUse" color-interpolation-filters="sRGB">
<feFlood flood-opacity="0" result="BackgroundImageFix"/>
<feBlend mode="normal" in="SourceGraphic" in2="BackgroundImageFix" result="shape"/>
<feGaussianBlur stdDeviation="94.5795" result="effect1_foregroundBlur_205_28"/>
</filter>
<filter id="filter3_f_205_28" x="-90.0247" y="-341.603" width="570.37" height="590.745" filterUnits="userSpaceOnUse" color-interpolation-filters="sRGB">
<feFlood flood-opacity="0" result="BackgroundImageFix"/>
<feBlend mode="normal" in="SourceGraphic" in2="BackgroundImageFix" result="shape"/>
<feGaussianBlur stdDeviation="60.8855" result="effect1_foregroundBlur_205_28"/>
</filter>
<filter id="filter4_f_205_28" x="-186.04" y="-342.824" width="533.705" height="573.384" filterUnits="userSpaceOnUse" color-interpolation-filters="sRGB">
<feFlood flood-opacity="0" result="BackgroundImageFix"/>
<feBlend mode="normal" in="SourceGraphic" in2="BackgroundImageFix" result="shape"/>
<feGaussianBlur stdDeviation="60.8855" result="effect1_foregroundBlur_205_28"/>
</filter>
<filter id="filter5_f_205_28" x="-5.44074" y="-114.748" width="512.73" height="515.743" filterUnits="userSpaceOnUse" color-interpolation-filters="sRGB">
<feFlood flood-opacity="0" result="BackgroundImageFix"/>
<feBlend mode="normal" in="SourceGraphic" in2="BackgroundImageFix" result="shape"/>
<feGaussianBlur stdDeviation="60.8855" result="effect1_foregroundBlur_205_28"/>
</filter>
<filter id="filter6_f_205_28" x="-254.075" y="-154.944" width="614.26" height="650.234" filterUnits="userSpaceOnUse" color-interpolation-filters="sRGB">
<feFlood flood-opacity="0" result="BackgroundImageFix"/>
<feBlend mode="normal" in="SourceGraphic" in2="BackgroundImageFix" result="shape"/>
<feGaussianBlur stdDeviation="94.5795" result="effect1_foregroundBlur_205_28"/>
</filter>
<filter id="filter7_f_205_28" x="-94.9768" y="-405.409" width="650.632" height="628.243" filterUnits="userSpaceOnUse" color-interpolation-filters="sRGB">
<feFlood flood-opacity="0" result="BackgroundImageFix"/>
<feBlend mode="normal" in="SourceGraphic" in2="BackgroundImageFix" result="shape"/>
<feGaussianBlur stdDeviation="60.8855" result="effect1_foregroundBlur_205_28"/>
</filter>
<filter id="filter8_f_205_28" x="-214.571" y="-406.762" width="604.962" height="609.007" filterUnits="userSpaceOnUse" color-interpolation-filters="sRGB">
<feFlood flood-opacity="0" result="BackgroundImageFix"/>
<feBlend mode="normal" in="SourceGraphic" in2="BackgroundImageFix" result="shape"/>
<feGaussianBlur stdDeviation="60.8855" result="effect1_foregroundBlur_205_28"/>
</filter>
<filter id="filter9_f_205_28" x="-98.3719" y="-55.673" width="479.772" height="356.043" filterUnits="userSpaceOnUse" color-interpolation-filters="sRGB">
<feFlood flood-opacity="0" result="BackgroundImageFix"/>
<feBlend mode="normal" in="SourceGraphic" in2="BackgroundImageFix" result="shape"/>
<feGaussianBlur stdDeviation="43.743" result="effect1_foregroundBlur_205_28"/>
</filter>
<filter id="filter10_f_205_28" x="-18.1421" y="-31.2725" width="459.657" height="489.211" filterUnits="userSpaceOnUse" color-interpolation-filters="sRGB">
<feFlood flood-opacity="0" result="BackgroundImageFix"/>
<feBlend mode="normal" in="SourceGraphic" in2="BackgroundImageFix" result="shape"/>
<feGaussianBlur stdDeviation="60.8855" result="effect1_foregroundBlur_205_28"/>
</filter>
<filter id="filter11_f_205_28" x="-231.041" y="-74.1194" width="567.742" height="623.73" filterUnits="userSpaceOnUse" color-interpolation-filters="sRGB">
<feFlood flood-opacity="0" result="BackgroundImageFix"/>
<feBlend mode="normal" in="SourceGraphic" in2="BackgroundImageFix" result="shape"/>
<feGaussianBlur stdDeviation="94.5795" result="effect1_foregroundBlur_205_28"/>
</filter>
<filter id="filter12_f_205_28" x="-90.0247" y="-293.603" width="570.37" height="590.745" filterUnits="userSpaceOnUse" color-interpolation-filters="sRGB">
<feFlood flood-opacity="0" result="BackgroundImageFix"/>
<feBlend mode="normal" in="SourceGraphic" in2="BackgroundImageFix" result="shape"/>
<feGaussianBlur stdDeviation="60.8855" result="effect1_foregroundBlur_205_28"/>
</filter>
<filter id="filter13_f_205_28" x="-186.04" y="-294.824" width="533.705" height="573.384" filterUnits="userSpaceOnUse" color-interpolation-filters="sRGB">
<feFlood flood-opacity="0" result="BackgroundImageFix"/>
<feBlend mode="normal" in="SourceGraphic" in2="BackgroundImageFix" result="shape"/>
<feGaussianBlur stdDeviation="60.8855" result="effect1_foregroundBlur_205_28"/>
</filter>
<filter id="filter14_f_205_28" x="-5.44074" y="-66.7476" width="512.73" height="515.743" filterUnits="userSpaceOnUse" color-interpolation-filters="sRGB">
<feFlood flood-opacity="0" result="BackgroundImageFix"/>
<feBlend mode="normal" in="SourceGraphic" in2="BackgroundImageFix" result="shape"/>
<feGaussianBlur stdDeviation="60.8855" result="effect1_foregroundBlur_205_28"/>
</filter>
<filter id="filter15_f_205_28" x="-254.075" y="-106.944" width="614.26" height="650.234" filterUnits="userSpaceOnUse" color-interpolation-filters="sRGB">
<feFlood flood-opacity="0" result="BackgroundImageFix"/>
<feBlend mode="normal" in="SourceGraphic" in2="BackgroundImageFix" result="shape"/>
<feGaussianBlur stdDeviation="94.5795" result="effect1_foregroundBlur_205_28"/>
</filter>
<filter id="filter16_f_205_28" x="-94.9768" y="-357.409" width="650.632" height="628.243" filterUnits="userSpaceOnUse" color-interpolation-filters="sRGB">
<feFlood flood-opacity="0" result="BackgroundImageFix"/>
<feBlend mode="normal" in="SourceGraphic" in2="BackgroundImageFix" result="shape"/>
<feGaussianBlur stdDeviation="60.8855" result="effect1_foregroundBlur_205_28"/>
</filter>
<filter id="filter17_f_205_28" x="-214.571" y="-358.762" width="604.962" height="609.007" filterUnits="userSpaceOnUse" color-interpolation-filters="sRGB">
<feFlood flood-opacity="0" result="BackgroundImageFix"/>
<feBlend mode="normal" in="SourceGraphic" in2="BackgroundImageFix" result="shape"/>
<feGaussianBlur stdDeviation="60.8855" result="effect1_foregroundBlur_205_28"/>
</filter>
<filter id="filter18_f_205_28" x="-98.3719" y="-7.67302" width="479.772" height="356.043" filterUnits="userSpaceOnUse" color-interpolation-filters="sRGB">
<feFlood flood-opacity="0" result="BackgroundImageFix"/>
<feBlend mode="normal" in="SourceGraphic" in2="BackgroundImageFix" result="shape"/>
<feGaussianBlur stdDeviation="43.743" result="effect1_foregroundBlur_205_28"/>
</filter>
<filter id="filter19_f_205_28" x="-18.1421" y="16.7275" width="459.657" height="489.211" filterUnits="userSpaceOnUse" color-interpolation-filters="sRGB">
<feFlood flood-opacity="0" result="BackgroundImageFix"/>
<feBlend mode="normal" in="SourceGraphic" in2="BackgroundImageFix" result="shape"/>
<feGaussianBlur stdDeviation="60.8855" result="effect1_foregroundBlur_205_28"/>
</filter>
<filter id="filter20_f_205_28" x="-231.041" y="-26.1194" width="567.742" height="623.73" filterUnits="userSpaceOnUse" color-interpolation-filters="sRGB">
<feFlood flood-opacity="0" result="BackgroundImageFix"/>
<feBlend mode="normal" in="SourceGraphic" in2="BackgroundImageFix" result="shape"/>
<feGaussianBlur stdDeviation="94.5795" result="effect1_foregroundBlur_205_28"/>
</filter>
<filter id="filter21_f_205_28" x="-90.0247" y="-245.603" width="570.37" height="590.745" filterUnits="userSpaceOnUse" color-interpolation-filters="sRGB">
<feFlood flood-opacity="0" result="BackgroundImageFix"/>
<feBlend mode="normal" in="SourceGraphic" in2="BackgroundImageFix" result="shape"/>
<feGaussianBlur stdDeviation="60.8855" result="effect1_foregroundBlur_205_28"/>
</filter>
<filter id="filter22_f_205_28" x="-186.04" y="-246.824" width="533.705" height="573.384" filterUnits="userSpaceOnUse" color-interpolation-filters="sRGB">
<feFlood flood-opacity="0" result="BackgroundImageFix"/>
<feBlend mode="normal" in="SourceGraphic" in2="BackgroundImageFix" result="shape"/>
<feGaussianBlur stdDeviation="60.8855" result="effect1_foregroundBlur_205_28"/>
</filter>
<filter id="filter23_f_205_28" x="-5.44074" y="-18.7476" width="512.73" height="515.743" filterUnits="userSpaceOnUse" color-interpolation-filters="sRGB">
<feFlood flood-opacity="0" result="BackgroundImageFix"/>
<feBlend mode="normal" in="SourceGraphic" in2="BackgroundImageFix" result="shape"/>
<feGaussianBlur stdDeviation="60.8855" result="effect1_foregroundBlur_205_28"/>
</filter>
<filter id="filter24_f_205_28" x="-254.075" y="-58.9441" width="614.26" height="650.234" filterUnits="userSpaceOnUse" color-interpolation-filters="sRGB">
<feFlood flood-opacity="0" result="BackgroundImageFix"/>
<feBlend mode="normal" in="SourceGraphic" in2="BackgroundImageFix" result="shape"/>
<feGaussianBlur stdDeviation="94.5795" result="effect1_foregroundBlur_205_28"/>
</filter>
<filter id="filter25_f_205_28" x="-94.9768" y="-309.409" width="650.632" height="628.243" filterUnits="userSpaceOnUse" color-interpolation-filters="sRGB">
<feFlood flood-opacity="0" result="BackgroundImageFix"/>
<feBlend mode="normal" in="SourceGraphic" in2="BackgroundImageFix" result="shape"/>
<feGaussianBlur stdDeviation="60.8855" result="effect1_foregroundBlur_205_28"/>
</filter>
<filter id="filter26_f_205_28" x="-214.571" y="-310.762" width="604.962" height="609.007" filterUnits="userSpaceOnUse" color-interpolation-filters="sRGB">
<feFlood flood-opacity="0" result="BackgroundImageFix"/>
<feBlend mode="normal" in="SourceGraphic" in2="BackgroundImageFix" result="shape"/>
<feGaussianBlur stdDeviation="60.8855" result="effect1_foregroundBlur_205_28"/>
</filter>
</defs>
</svg>
